<mxfile host="app.diagrams.net" agent="Mozilla/5.0 (X11; Linux x86_64) AppleWebKit/537.36 (KHTML, like Gecko) Chrome/109.0.0.0 Safari/537.36" version="26.2.14">
  <diagram name="Page-1" id="8pq0C_ePBhhR4oES4Mlz">
    <mxGraphModel dx="872" dy="484" grid="0" gridSize="10" guides="1" tooltips="1" connect="1" arrows="1" fold="1" page="1" pageScale="1" pageWidth="1100" pageHeight="850" background="light-dark(#FFFFFF,#FFFFFF)" math="0" shadow="1">
      <root>
        <mxCell id="0" />
        <mxCell id="1" parent="0" />
        <mxCell id="y2r9677_35H-fyOSKQa3-18" style="edgeStyle=orthogonalEdgeStyle;rounded=0;orthogonalLoop=1;jettySize=auto;html=1;strokeWidth=4;fillColor=#dae8fc;strokeColor=#6c8ebf;" parent="1" source="y2r9677_35H-fyOSKQa3-5" edge="1">
          <mxGeometry relative="1" as="geometry">
            <mxPoint x="205" y="163" as="targetPoint" />
          </mxGeometry>
        </mxCell>
        <mxCell id="y2r9677_35H-fyOSKQa3-5" value="" style="shape=image;imageAspect=0;aspect=fixed;verticalLabelPosition=bottom;verticalAlign=top;image=data:image/webp,iVBORw0KGgoAAAANSUhEUgAAAgAAAAIACAYAAAD0eNT6AAAACXBIWXMAAAsTAAALEwEAmpwYAAAdi0lEQVR42u3dO65dSRUG4J6Gp+IJICQSBoDUJ0AiZABEqDMPAKllEXSKdJusMyQYgC1D0gRHiMAZjyEYqvuWb3l7n3PPY1ftqlrflj656Ydtru2z/lq1qvYXP/n1z74AAGLxRQAAAQAAEAAAAAEAABAAAAABAAAQAAAAAQAAEAAAAAEAABAAAAABAAAQAAAAAQAAEAAAAAEAABAAAAABAAAEAABAAAAABACgC19+/ebFk7cvC4fs8Prdq9Ivv/n7Q/72nPLfLZXf96c/5tPPxa8NCADAXcX9qaCXBfzRsfChE+XP6aEMEJ+GBiEBBAAIv3p/KvCLwv5hch+DgoAAAgDMvJKPWOS3DAeCAQgAMEyxV+grBQOhAAQA2L3YF6t6RXq/YCAUgAAA1Qr+so2v+Par2D4QCEAAgNsKvmI/QZdAIAABAE629IsVvqIZo0NgywABwBeBqKt8LX3dgacZAmEAAQAmLfpW+Vy8XfDSnxkEAJij6FvlIwyAAICiD8IA+CKg6IMwgAAA4wzyKfr0EQYMECIAQMvpfQWIro4XOk2AAABa/DhaaIsAAQCs9okaBnQFEADAah+Dg7oCCACwVvit9okyK+DPPAIA2vw/tvmt9rE9AAIAjvCBo4QgAKDwQwCCAAIA9vfBnICBQQQAFH4QBEAAQOEHQQAEAHrb41f4QRBAACDecJ8PaTAsiACAwg8IAggAzLbP7wIf6ORCIZ9JCAAo/CAIgACAyX4wKAgCAPb5wXwACABo94NtAQQAWLb7FX6YJwjYFkAAQLsfbAuAAIB2P9gWQADA9b1AlNMCugECgC+CVb8PQ9ANQADAqh/QDUAAYM5Vvw894BO6AQIAVv2AboDPTQEAe/2A2QAEAKz6Ad0ABADc5ge4RRABAIN+gAFBBAC0/AFbAggAaPkDtgQQANDyB2wJIACg5Q/YEkAAQMsfsCWAAICWP+DiIASAyA6v373ygQP0Jn02+YwWALDfD5gLQABgo+Jvvx8YZEtACBAAMOwHGA5EAMCwH+C+AAQADPsBhgMRAFD8gVmHA322CwCY9AecEEAAwKQ/4IQAAoDi7wMCcEIAAcAxPwAhAAFA8QcQAhAApij+PgSA6HcFCAECgAt+AFwYhACg+AMIAQgAij+AEIAAoPgDCAEIAIo/gBCAAKD4AwgBCACKP4AQgACg+AMIAQKAL4JLfgBcFiQAoPgDCAECAO72B/DuAAEAxR9ACBAAyMX/zQvFH6BVCHjzQu0RALqg+AMIAQJAvOL/4A8jQHMPapAAoPgDBHR4/e6VWiQANJd+4/kDCCAECABu+QPAbYECgIt+AHBRkADguB8ATgYIAIo/AEKAAGDiHwDHAwUAE/8AOBkgAJj4B8DJAAHAxD8ATgYIAIb+ADAUKAAY+gPAUKAAYN8fwFaAeQABwL4/gHkABAD7/gDmAQQA7PsDmAcQAOz7A2AeQACw7w+AeQABwL4/AOYBBAD3/AMwDu8LCB4A7PsDmAcQALT+AbAVIAA48geAo4ECgNY/ALYCBACtfwBsBQgAWv8A2AoQALT+AbAVIABo/QNgK0AA0PoHwFaAAKD1D4CtAAFA6x8AWwECgLv+AWguwrsCvOYXANa3Al4KAAb/ADAQKAAY/APAQKAAYPAPAAOBAoDBPwAMBAoABv+Ain7x++8v5uuFgcCJA4DBP5i/yJf/7Ks/fv+Db/7yj4/fZuXfzy75PiHCQKDBP6Dror8s8n/66/sf/O2f//7w/v37s/71n/9+9vfSf5e/jzIcLEOBXwNmHwicbfVv8A8GL/q54Odinwt9LuZrRf1W5feVg0EOBcsQAqnGCABW/0DFor9Vgb/HWhjw68VMXQDH/oBdC39Z9Ldc3W/ZIchhQFeAmY4FOvYHNC/8ebV/yT5+b2EgdwUEAccCBYA+Vv9+U8Ighb/X1f4tXQFBIPJWwPhdAKt/oFmrf8SCf8msQA4Cfr11AQQAl/6Awr8o/KOu+C9VzgiMeNSSeJcDufQHqNbuT3v8sxf+cmsg/f8doRuQC3/ekikvSCLO5UBW/4B2f4VtgR67AeWRy/K45c9/+/DhV7/7s9/DwboAVv/A5kN+UVb9zw0K9tINOFX4088z/b2f/uYPQkDALoDVP7BJgYm+6n9uNmDP/f1TRy5TGEiFvyQExOkCWP374PZ14G6K//luQKstgeX7E547cpmKfV79CwHxugBW/9q1QgB30fK/TK0BwWXRv+SCpfTrlf69teKfpL8vBMzfBbD6DxwA0gd3etIHgRDALZ2jkW7y68UWIWCt6F97wdJa4V/yuTB3F8Ctf4GVjxDAtRT/tiFgi6Kf/91TrX+dgFhdALf+BR7YWj5uM0Px7ycEnCr4y9cjXzuPcK71f4oQMOftgFb/gT/A1x4hAMW/fQgoLQv+lq9HXpv6v4ROwJzvCLD6Dzr8d+rJ54KFABT/diFgbYVfQy7mt4QAMwHzdQFGWv0f/ebadvhPCODaaX8Fu/7lQbVcuu+vE3C34yhdgFGO/h38ptpO+qB57hECWIZGR/3G7jLcW/zNBFw1DHgQALY7+mf136D9vxYCXBbk94xLfsbuKmxd/HUCLusCCABW/0NM/wsBnAuMCqnibyZgziOBLv4J9oF+avpfCMDQn+KvExDrYiDX/tr/vzgEmAmIt++vmNrzNxMwbxfA0b9Artn/FwL8XlFIFX+dgLmPBDr6Z/9fCEDrfxJbHPUzExDnSKDhP+f/b3qEgHmloOjI33ivG967+OsEjHck0PCf63+FAEz9DywFtntv+DMTEHMY0PCfAcC7Hm8RNPhHrP1+nYB5hgEN/xkAvPtJRUMIsPqnbcu/9qp/i+/b50Lfw4CG/9wAKATgrv9BpG28mnv96fvN33f6cXQC5h4GNPznBMBmT/pwcmGQ1T91XhJUY68/F/yy6KcfJ/1Zzj+emYB5hwEN/wkAmz6OCdr7Z1tbTvivFfz8KuJ89DNvMWwdNISA/oYBDf85AljlEQJc+sN9q/5UkPOQ363F+FzBz6Ev/Vjlsc88X+CegPmHAQ3/CQDVHicEvO2PNu3+stCX/81awS9/nNaXCUXvBPQ2DOi1vwKAuYDgFN7+L/RZFvjlP0//zbLYly39Sy92anWZUOAQcBQAtP/DBABzAdr/XDfd/1yBL4v8clV/TbHf8xrhyJ2AnrYBtP8FAFsChv/oYMivXMGvFfhloZ/hQqGInwc9bQNo/wsATZ/087AloP3Pp6v/5b58y3cx7HmbYNBOwFEA0P4PGQBsCfQ1/OelP64S7uEq4WghoJdtAO1/AWD3LQFBYL/fEwKA4u/dAXG3AVz96yKgXR+nBPZ9OZQAoPj3JNDnwFEA0P4PHwAMCO77bgjFUPH3FsG42wDa/14GpBsQOBAqiLG0POpnJqD/bQDT/wJAV09qSZsNaDcToigq/joBcbcBtP+D7fmO8uR70IWAOgEgfX0FAK8Q7t3sf/733gbQ/g8kf+iP9KRugG2BemFQgZz/auGtXyGsEzDPNoD2v6OAQ2wL5G6AILDN9b/5USjnLf7XvlDITEC8VwTvffzPB7KTAIYEd5wHUSxN+usE7L0N8OZFwADw9uAD2SCgbYF9g6BiadjPTMDucwCHcAEgtT58IBsEdFpAAKDuq4RnMmkn4CFUAHD73/7T37M85WkBQeD6WRDFcw4z7fcHnAk47rUN4PifOQBBQADAfr9OQMDjgI7/BZ4An/FJxU0QuLwLpIA6328mIO5xQPv/7gMQBAQABpR+j0cu/pN1Ah5CBADH/9wHIAgIAGzTAYhc/GebCdhjDsDxP8cBQzxmBAQAAUAnwHHAnQOA/X+nAfYOApHvERAA5qL4zzMTsMccgOt/nQYI+eR7BPLXI0oYcApAB0AnwNsBdwkA9v9dCmROQABAB8BMQB/3Adj/NwzoObE9MGMYEADmu/ZXwZ+nE9B6DsD+v2FAz8r2QO4KzBYGXAVsC8BMgDmAXQKA8/+6AKPOCpRbBCOHAQHAi390AtwH0DwAuP9fF2CWLYKRw4DXAc83AyAATDUT0HQOwP3/QoAuwJ1hYKRtAgHADIBOgPcC7BEADAB2WhCcCLg/DKzNDPQcCPKvtyJqBsBMQNxBQPv/uBegwgDhWneglw+f8jIghdQxQJ2AuHMALgAi/O2ALboDPQWCcttHEdUBMBMQ90IgFwBhILCjQNAiFJQdH4VUANAJiPtiIAOA2ArYecvgklCwZTAow55CKgCYCYg7CGgAEFsBA4SCHAxOhYNbPsjSj5MopmNKvz8U8Tk7Aa0GAQ0A4j0BAwWDZThYCwjnQkIpfR8CwJjysKkiPu1MwMNMAcAA4GDMA4zdPchSkSjDQhkYBIDxOwAuAZq2E3CcIgC4AdA8gKffRyEVAOhyJqDJjYAGAHFLoADAgFJAFwDm7QS0GAQ0AIihQAGAAWcABIC5ZwJaDAJ6BTBCgADAgAEgzXEIAPN2Alq8GtgJAC4mBAgACABmAuY5CeAEAFe9NEgIEADoIwCkFaoAMHUn4Dh0AHACwGCgRwCg3quABYCpZwKqnwRwAgAhQABAAKDDTkDtkwACAO4JEADwKmA6nAkYPQA4AhjgDYKuDRYA8B4AnYDxjgI6AhhsiK/W92tLQADAewDMBIx1FNARwEB3+9cOAmlLQDdAAMAtgDoBYxwFdAQw0Nv98u1hKQxs/Y55RwUFANwBYCZgrKOAAkDQm/zS/05hYPnqWAOCAgD9EwDCdALGDACPdwAowJ0f28uvj82dga0CgW6AAIAjgGYCthgErHcXgCOAzu1/Fgjy++PXAsG14UA3QADAEUCdgD6PAjoC6Mz+s4EgreJzKMjBIIeDtR/rVFhwUkAA4H7pz6OiG2cmQABgk/P6NZ48XJilD6c1qfgnTgkIANx/B4D2f5xOQM27ANwBEOwkgMcjAIx9AsARwFgzATXvAhAAvM7XIwDgBACddgKGDAAuAfICH48AgBMAZgL6vQxIADAI6BEAcAKAfjsBQwYAlwB1+C4Aj0cA8BIghpoJOA4VAB4vARIABrgR0CMAYACQrjsBx1qXAQkAtgE8AgDeAUC/MwFDBgBFN9B9AB4BAAOA1OkEDBYAXANsG8AjAGAAkC1mAmrdBigA2AbwCAAYAKTjToAAwKY8HgHAACBjzASMFgC8B8ClQB4BAPv/bNAJqPU+AAHAMKBHAMD+Px3PBAgAGAb0CAD2/wnYCRgqAHgRkC6ARwDA/j/bzATUeiGQAKALoAoKANj/p+NOgACALoBHALD/T8CZAAEAJwI8AkDQ/X+r/9idgKECgFcBj0UXQADA/f/02wnQAcDtgB4BwP4/MUPAgw4AVRkIFABw/I/+2ALAQKBHAAjG8T9+9O13AgC2AjwCgPY/AoAAgLsBPALArNKfQ4UPAYDm0vSxRwDA7X8IAAKAo4EeAQDtfwQAAcA8gEcAwO1/CAACgBDgEQAw/Y8A4CIgVwV7BAC0/3EPAEKARwDA9D86AAgBHgEA0/9M2QEQAIQAjwCA9j8CAAYDPQIA7v5HAEAI8AgArPHqX9Z8+fXbwzABIP1kFcoYLw9yY6AAgLP/CAACQMAQkL41FyAA4Ow/AoAAYEvAIwBg+I/AAeClwhhzS8CbBAUADP+xeQB4KQDQfQjI3QCzAQIAl5/9N/yHAMBUswG2BQQADP8RLgC8eaEQYkhQAMDNf2wRAN68GC0AHBVBlkHA1oAAgOE/BAACbw0YFhQAcPSPy9So09UCwOMbAQUAzg4LpsEnXQEBwOpfAKD9mwBrBwCvBOaiIJD+OoWB3BkQCASACHv/Kfwq/ggACAOPYUAgEACs/mHwAOCFQNQKBWnlZIZAAHDxDwKAAEDQQCAUCACjtv+t/tn7VcBVA4D3AbDH/IBHALD6x3sABAAMDHoEAKt/3AK4QwBwHTCbtftzm1/BFwCs/hEAug8ArgPmukK/3Nu3ry8AmPxHAKhzC2DVAOAyoLhF/BJloTfIJwA49w9tbwEUALi78KfinYp2+nDLUjFfKv95+vft3wsAVv+w3xHAFgHAZUABWLULAHjjHwKAuwACdgHSh5tHAMDqn3HuAKgeABwFjEM7XwDA6p9x7gAQANAFEACoKG2PKWQEDQCOAkYKAWYBBAA+lYZkrf7p8QhgqwDgJEAQ6cPOIwDg0h8EAEcBdQE8AoDBP4WMDk8AtAoAjgIGuxfAIwAY/DP4hwDgKKCBQI8AEI7iRe9HAJsEACcBbAV4BACDf9DXCYBWAcBbAYMOBLobQABw3z/09xbAhgHASQBbAR4BwOAf9HQCoEkAcBIgdghIKyKPAKD1D30NALYMAE4CmAfwCADO/EO0AGAQEPMAAoDWP/QzANgyABgEdD+AECAAaP1DJwOADQOAdwIIAUKAAODCH+hlALBZADAIiJsCBQAX/kA/+/+tA4BBQHQCBAD7/hAtABgERAgQAGah9c/oA4CtA4BBQD4JAelbRwQFgBFv+1OoGH0AsHEAcCMg61wWJABo/UPbAcCmAcAcAK4NFgAUf+hj/795APBqYMwFCAD2/WG/VwDvFgAMAnLJXIAtAQHAW/6w/z9dAHAhELoBAsBY0qCq4sRs+//NA4ALgTAgKADY94f99/93CQDmALimE5C7AYKAAKD4Y/9/8ABgDgBBQAAYYd/fS36Y9QKgHQOAOQC2CQJmBAQAE//Y/x8oALgPgK2CQPrr9EHtNkEBwE1/2P8fJACYA6BGV0AYEADupfgTZf9/twDgvQDU7ArkMGCbQAC45bif1j+zn//fOQB4LwD1w8BaIEgf8olgIACY+Cfy/v9uAcAcAHsFghwKshQOckA4J4WHGbcYFH7Fn5j7/7sGAMcB6TEcnDPjC4sUf8WfeMf/OggAjgPiRkIBQPFH+z9cALANwCjvJJj5ZIHir/gTs/2/ewBwHBAvJBIA9uCWPyIf/+siADgOSK8zAVGuHLbyh3jH/7oIAN4OSG/FP30b6TIhxR9itv+7CAC2AdDyFwAUfwSAgAHANgA9FP8Zj/gJAIo/2v9dBwDbAJjyFwBqXu+r+NOjHmpvFwHANgBW/QLA1m/1U/wx/T9AALANgEE/AaDGW/0Uf7T/Ow8AtgFouer3IqB5A0D6tU2/xooM2v8DBQDbANjrFwDulYq/VT/a/4MFANsA1Gr3R7nUJ3oAcLsf2v+DBgDbAGx9m592f5wAYNgPZ/8HDwC2AdDuFwCu2e9P3R3FH+3/CQKAVwRzz4o/FX7t/jgBIA/7Kf549e8EAcArgrl1xa/wxwoA9vvR/p8wAHz59duDwoYVvwDgZj8mG/47CACXbQMYBkThFwBWz/cr/mj/TxoADANyrvAb7osZALT8MfwXJAC4E4Bc9NNfp5Wfwh8vAJjyx9n/gAHAMGDsol+2+Z3jjxsAtPwx/Bc0ABgGjNnit9qPHQCs+jH8JwAYBgyy0tfiFwCs+jH8JwAYBgzU3lf0BQCrfgz/CQCGAQOs8vOevqIvAKxN+Fv1Y/hPADAMOHixLwt+XuUb5BMArPox/CcAGAacqNAvi31e4Sv4AsClhV/xx+pfAPCa4J0L+6kCn/9ZLvSKvQBwa+HX7sfqXwDQBehMLuy5uOcCXxZ5hV4AuKfwm+7H0T8BwJHAxtIHby7giYLuaRkA7PPj6J8A4Ejgzq/LNX3vaREA8orfPj+O/gkAW3cBFPUbQ0D6jZk+kAUBT80AoPBj9T/G6n+oAKALcL+8B5s+oL1O17NFAFiu+O3zY/U/Tk0dKgC4GGi7ECAIeO4JAAo/jL36Hy4AuBhouxCwDAJ5WNAjAFw61a/VD+Md/Rs6AOgCbBsCyiCQ/loQEADWin4+QaLww7gX/wwfAHQB6oSAMgykb50cEADKNn95gY/CD+Ov/ocNALoAdUOA7YG4AWBttW9/H+Zb/Q8bAHQB2oSA5Yovv9HPM18AsNqHWKv/oQOALkC7EHCqK2CLYI4AkIu+vX2Is/ofOgDoAuwTAsogIAyMXfiXLX6FH+Ks/ocPALoA+4WAtS0CYaDvZ21fX9GHOOf+pwoAbgfsIwSc6gzkmQEDhPs86etetvcVfYh769+UAcA7AvoKAWthQHdg/1W+og9W/9MFAF2AfkPAc92BHAh0CG5f4eeCvxziU/DB6j9EAHjsAhwV7b5DwFoYyIEgdwhsGZxf3aevz6kVvqIPVv/hAsDjQOBBwR4nBFyyZZC7BKnoRdo6yCv7sthr6UM3x/4Os9TNaQLA47FAXYCBQ8C5LkH++2vBYMSOQb54J7fwyzb+qVAEOPYnAOgChAgBlwSDsmOQw0EZEHJIaBEUymt08wo+r+LLAn+qyCv2YPUvALgcSAjYIBicKqi5CC9DwzWW30dZ1G/5OQFW/wKAy4GEgEZh4bkifUkBV9DBlb8CgGOBQgCAY38CgGOBQgCAY38CgIFAIQDA4J8AYCBQCAAw+CcAGAgUAgAM/gkABgKFAACDfwKAgUAhAKCp2WtjiABgIFAIADD4FzQAGAgUAgAM/gUNALYChACAqGf+QwcAWwFCAIDWf9AAYCtACACI3voPGwBsBQgBAJFb/2EDgK0AIQAgcus/dACwFSAEAERt/YcPALYChACAiK3/8AHAVoAQALjrP3INDB0AvCtACAC0/gUAWwGKshAABCn+kVv/AoDXBgsBgNa/AIB5ACEAcORPAHA0ECEAsO8vAJgHQAgAHPkTAMwDIAQA9v0FAPMACAGAfX8BwDwAQgBg318AMA+AEAA47y8AmAdACADs+wsA5gEQAgD7/gKA9wUgBAB3Sp/ZapcAYChQCAAM/SEAGAoUAgBDfwgAQoAQALjpTwDAyQAhADDxLwDgZIAQAJj4FwBwMkAIAEz8CwAIAUIAYOJfAHA8ECEAUPwFgHgnA4QAIQBw3E8AcDwQIQBw3E8AEAIQAgDFXwCY/o4AIUAIAJz1FwBcFIQQACj+AoAQgBAAKP4CgNsCEQIAt/wJAEIAQgCg+AsAQgBCACj+CABCAEIAKP4IAEIAQgAo/ggAQgBCACj+CABCAEIAKP4IAEIAQgAo/ggALgtCCACX/AgAeHcAQgAo/gIAQoAQAHirnwCAVwkLAYDiLwAgBAgBwG2+/U7xFwA44f/F50EBFgJA8UcACOjw+t0rBVgIgJmKv892AQAhQAiAQNJnmc90AQAXBgkB4IIfBAAcExQCwBl/BACcEBACwLAfAgBOCAgBoPgjAGA4UAgAw34IAIYDFWEhAAz7IQAYDkQIgJ1a/ob9BADMBQgBYL8fAQBbAkIAaPkjAGBLQAgA5/sRAKh4X4AtASEAtPwRAGwJIASAlj8CgC0BhAAw5Y8AMP+WgIuDhADQ8kcAiL0loBsgBIBBPwQAA4IIAWDVLwCgG4AQgEE/n5ECALoBCAFY9SMAoBuAEIBVPwIAugEIAVj1IwCgG4AQgAl/BADcG4AQQH/Sn22rfgQALrlF0LaAEIDb/BAAsC2AEIAhPwQAbAsgBKDdjwCAbQGEALT7EQCwLYAQQPvCr92PAIAgIARgnx8EAMwHCAHY5wcBAEFACMAtfuCLgGuFhQAUfgQAcGJACMBkPwIACAJCAAo/AgDYGhACUPgRAODWYUHHB4UATPUjACAIIAQo/D4bEAAIFQRcKCQERL65T+FHAEAYMDAoBNjfBwGA2EHA9oAQMGebX+FHAIBrtgd0BYQAbX4QANAVUPCFAG1+EADQFUAIsNoHAQBHCYUAxbhl0XeEDwEAbBEIAQb6QAAAYUAIUPRBAABhQAgYrr1vmA8BAOYKAw9CAOf39BV9BACIcJrgKASY3jfIhwAAMcPA9N0Bhf7zVb6ijwDgiwCfdQdmDATBC75VPggAcFeH4CgEWOGDAABBA8HIMwQTTuofFHwQAGDXUFAcOzwKAYo9CAAgFDz0Fgx6LvRP+/aKPQgAME0w6Ccc9FTkFXoQAEDnoAgIRUgog8KxvxDwY2FfKfBW8iAAANt1ET4JCy+LYvsxOJRSgFiEiY+WhTt/uyjiRTHPnn4ufm1AAAAABAAAQAAAAAQAAEAAAAAEAABAAAAABAAAQAAAAAQAAEAAAAAEAAAQAAAAAQAAEAAAAAEAABAAAAABAAAQAAAAAQAAEAAAgF38D5DYmYpx7EW/AAAAAElFTkSuQmCC;" parent="1" vertex="1">
          <mxGeometry x="68" y="124" width="78" height="78" as="geometry" />
        </mxCell>
        <mxCell id="y2r9677_35H-fyOSKQa3-7" value="" style="rounded=0;whiteSpace=wrap;html=1;fillColor=#dae8fc;strokeColor=#6c8ebf;strokeWidth=3;gradientColor=#7ea6e0;" parent="1" vertex="1">
          <mxGeometry x="210" y="135" width="120" height="60" as="geometry" />
        </mxCell>
        <mxCell id="y2r9677_35H-fyOSKQa3-8" value="&lt;div style=&quot;&quot;&gt;&lt;font style=&quot;font-size: 17px;&quot;&gt;&lt;b&gt;Producer&lt;/b&gt;&lt;/font&gt;&lt;/div&gt;" style="rounded=0;whiteSpace=wrap;html=1;fillColor=#60a917;strokeColor=#2D7600;strokeWidth=3;align=center;fontColor=#ffffff;" parent="1" vertex="1">
          <mxGeometry x="223" y="124" width="120" height="62" as="geometry" />
        </mxCell>
        <mxCell id="y2r9677_35H-fyOSKQa3-12" value="" style="shape=image;imageAspect=0;aspect=fixed;verticalLabelPosition=bottom;verticalAlign=top;image=data:image/png,iVBORw0KGgoAAAANSUhEUgAAANcAAADqCAMAAAAGRyD0AAAAgVBMVEX///8AAAB5eXnQ0NCOjo7BwcE+Pj59fX23t7eRkZH8/Pzk5OTv7+/09PQeHh4bGxuurq7Hx8enp6fZ2dnh4eFzc3OYmJjIyMg1NTW1tbWEhITp6elra2tXV1fW1tZhYWFJSUmdnZ05OTkTExNRUVFHR0crKysLCwstLS0kJCRVVVUf1vXBAAALd0lEQVR4nO1d6XqqMBAtFjeEKri1LnXpYu37P+CtC7MkExTwSvDL+dUGhDlkm5lMJk9PDg4ODg4ODg4ODg4ODg4ODg46gjDx/YbvJ/OgalFuiJ6/9VL8zEZVi3MjBDOPYxxVLdItEL94GppVC1UeHZ3VH2ZVi1UWiUjL8xZVC1YOcm0dkFQtWhn0jLQ8b1q1cCXwmcFrW9+ZLGY9ajAYtGnBoGrxCoNUl3+unQ0Wvda1wuZSZ3qufw+bAIMOKZ1iHVYmWTksUgJrubhfiVTlARXD1aYhlFckV1mY5Ifymg4cJl4/aXmvErFK4yKvYSVilcbFdlhTO8wwbvRMfOuCVSr/khWP0+KPiuQqC1+sMFQ42pVJVg7ESkGVqYdugecKZSuFNRJLzcgBFr2I01dnsJkkA7sdIMxangyagw0t2Gj3R0kLrr7ql+3B2jPjR62uYKLcsbFWH3nP4KVaKc9b7Za9tRP3m5GW6mmTPTzWNsaFKK46pbHxhGFSidRXoC2Kq7oPm8Z67YhPtQCSyKrzMMsfZ63SHzYUSVfaikqWP25VhczXoUcb41gf5FiVLv2uv6IFVrt33ndHGT9E3ekLSSxOtktIxpv1HcXMj/5RxhfpEjo8vBgKyYLF/G5CFkAGL9T730gpErN2Ejsggxe0OT6pQev8uouABWHmFUHFcC0eR5P7SFgMZl5hKv6O67nBo/BS/ALBd3rB5giCK3gpFwPwx73fRcJiOJn/e+GKsb6gHVprh003qSHcmmgmPvBS6mVkef8Kux7HTJlowapusGLwx4mTQ9UIJUNlzJhhPA5VHdHW7t5Z5Gvw9iHQ8pilQnTBHRolvT6U2qf4aqFRiOV5MAg2rDjtfZ0dllUmvglByzPjFOcQ79XiJH6fvr3KVWsHcAIS8Ro8jbIMyjP21o3yuuOMo+VfuOGI+PKL7gt1eC8G6xYnni/LjFiZGqTqj6se31zASScKorgrDvv76VOwki54n1Wz0MACDz/QC/j8rQl/sodV7/zxY1QlvREBHanHbEhT+l0jXWUevvIL3tpC9zx1nal6ECX2SmVv0sa4sm4gPCDTT0ZURsXrGXbajdb3V3vWCe8iZl5E5MPrEkZEyahXrANxCUraOFk9eRMu2wvShSTnRNTPpG0vUENqiddxGh7fWbJywJFBDpTHhvh6Z8nKARfM5f5DpoE7S1YOPw/KC6cvedEAedUrSAr7l6y54nWrFxU04HiohZ8cgSZnvXYWkbgNyZt0Ydq2F0SP+hUuE+3R5jUFHdQTpUdgEFN6pzbTee/9/bln7dIrtUVUIcn+DkXdGM5SReSzbeciyojIrmj0IfMFjPFi/EUveF9Wxl0uqYjUtanF35yN/UgPpVpa5zpUKsz76ZzsrCAWXMD9pnZ/CgurTHXNLxvthim6rdUzeeUsJCbsWzbDsOxi4xpsVrDo9bBwG6Y5qPCEQbi8cMcB1jmyLxE7jINTIah322qxxSMLNZIsYmc1JOmz0tf40O6CJhk2bdya/q76cKFWQB2OaNglasGk1L4e9vfl5TWuBpUVPfNUucc5wc6NzuFYY7XiMbtwwzerGVhhtjUSNkpaOD3ttoniAEZnIveFoM/qjrLmRDg8MXt51y0QjLfhPu2oBrwKxbNBPdq5BnFCmXg2C5VEQIH6goHD5jWXK3gpmgWW30fCYjDzCkCX4r4pv+a8cP5iAwQOhw3pR7YggxdqkdT5i0sX1m4pOuDES4qDfQoxdm2bDhEhUXzvKGVOzDepGruaCK5BGnrZHYVROKIl1qYfmXO3xkILy5iz654SuWLrrKzHf2kDgSkr2AHWhR+eEH0Jsv6oNrA5DtG+wK8j5gZxFTdTYLI/+zYalVQXUqHUWCgHYfYtVaHMG87VrFiRFKi3spTWxkhL8J/pW5gtHTKI5npFS/yrMu4L8S2tLD7fJkf/2YB41SS3RXP28rLzdvv9zGLliSzGYkchc7Rhwg2H1lbUCR2xai6FdtgPXCliFbCX2NYJQIDbi3Xwn2UC5O8Zyu3UJS7CVC9y86wPTLzAZLTZf5aBh68v3r9qsM81G4bxEI3IiuQqC8P8BapUXecv9J/RmDa0R+qqbxD98BO6EjGzbHXIXAQNudkc2mKQkPgTG9fDr4NifymhUdYmULqMLP9ZvQJ7Ffwaacn7O+qCwBj8ZWEUTR70+jItC7cY5kMkuXK3Na+tI3T//KymiqGCOY+40ddTaosoSamtNrXVMkyI4oej5ODg4ODg4ODg4ODgUC9EYVjVSljQO+PGAszjxur3++UcMZS+5H67zWG76k0PbOmB4+O4FQoW/La3fEkm/gsvkpGN87qfL/h/8KJRXg/Eix1G+kC89o/Ji26VXY6PufMegheuZUJU6EPwgoBm3FT5ELygurDooXiRRDAPxYvE4tjP6zmZNNaLSZIRsJY+kKR8zclrniT+52c3eSuxmibySnwAvbdJl7vax2iGOL3vuH2j+fcHLPZ9dg/lz0Ze81n6W5aOf061leVJqvTOHPvuJV7khDWyrNpRd5q0IxLvcBz8hATTxnmZJC8iuwTmakKZr8MHS//JsW9R4EXSoeACpJQppN9DXp2cvPCsERpNJaUwTpBXjkwkOi+SP2ik38YRQahyXl74mUjUkZxyenYTXmT/E8YDxZ6Mj6K8UClBWsas9nBwegleJFRNPGpeAUSn5OOFtEioolxbFCV4iZtwjbmSPH63kGokkXghf0JLPdTuprzE2Eg2Rv20u0ky01KKHHmFBxdGWjKb//03igReuH+A7EXkTX08S5JuW22YhXkhLaIt0Dcuh+lpGwNeiVi7whM4LxxvaSpPsq1vN0hfMuJtsyivhfgEsj+UKSWs4VzPC49+/CE+MLL3jYVlTj2Cgrw24gNIak1lTyjdh3c1L5xGKC1SXUpwME0uVoxXU/49VoumQpIau5YXhsHtaNQRfjwtlpsMxkV4TQ3HeAfQj4SE1/l5Ycgsi3xDRUN/CU4KRXjhk3+ZGo2hvEKwEGaHvY7XEsdRHiNm2GnAf12IF2DNbwANUAz2z8kLMTQ8RzJNYFosw2uvOOphDhXzYcMG0py8lBEIxkgxRB0mmjK81BhCaN1izBq03ny8jKcZy7Hct+Cl5t0FXuLPYRTOWV+KvQ0Wn2w53oKX+uNsXjAb5e1ffMUIeMkRp2V4oZHMJ8ZsXvCr63iNYTz8uvSYW/GaohrIZhbgJS78+bpAWbxaOPCxngT9S0wNAz8vpm+Advgt5jAUx0PQS6/lhe2ennoDRoA4HsIsWYwXptSgmsUg65VohV6tH6KNRhuAWJgCPl5BvRdVUqIJZuobm/y8nsCttSYPgkIhgwV6JoraKfgtsYsFoOLoXi4yzl3PC+uYeE6ztmai7lXYroStGWSBG9VO7YAA4nvLYVcmwgNRn9fS+ZD1tMK85kIXM9tf1J2RgxcOUEQHQPtLGRLJ60v4N1BBxy5GUtmw6YW5PfLwisAnuoZbiI+ZDVAsUXAJfxSaiqARUP/GJyhAStKaPLzIE0EHCMQDO4d8z1IJXrhfDc8XUpwnkz9oXu1cvIgZCd+JZ3D+PbxEO6u1jL8XB3sY/yJjrqiivLBt92H20LMBayjln9/osprc2H/WWkFeOCuiuWpMeQaftRQv4oKAyV/PAHUGX0+5nhcZJ+A+YwoxaKLleOG3xNRdhvzlPb7ukIMX6bRom8inBLdvs05EvyXOJXMpzdrwqXB9kSwJRCeUjuDu3mj964l2YaLED9TzRA8HpCT6jfo3QV70DDfU7MmENVQXVbYxeWSO9crhuHHEmOoSQSMF1eyDDn1p+6hCxunP0bBfnEuoXXO+q8F0iSQtXVCvwLBN4quWzYA+8r+ldYtGE3/WmPmb0X+Mbw3CxPfbM9+Pa5pOxsHBwcHBwcHBwcHBwcHBwSEf/gHH6oPZL/TH7wAAAABJRU5ErkJggg==;" parent="1" vertex="1">
          <mxGeometry x="412" y="111" width="111.18" height="121" as="geometry" />
        </mxCell>
        <mxCell id="y2r9677_35H-fyOSKQa3-80" style="edgeStyle=orthogonalEdgeStyle;rounded=0;orthogonalLoop=1;jettySize=auto;html=1;fillColor=#dae8fc;strokeColor=#6c8ebf;strokeWidth=4;exitX=0.5;exitY=1;exitDx=0;exitDy=0;" parent="1" source="y2r9677_35H-fyOSKQa3-14" edge="1">
          <mxGeometry relative="1" as="geometry">
            <mxPoint x="653" y="325" as="targetPoint" />
            <mxPoint x="653.0588235294117" y="332.5" as="sourcePoint" />
          </mxGeometry>
        </mxCell>
        <mxCell id="y2r9677_35H-fyOSKQa3-14" value="" style="rounded=0;whiteSpace=wrap;html=1;fillColor=#dae8fc;strokeColor=#6c8ebf;strokeWidth=3;gradientColor=#7ea6e0;" parent="1" vertex="1">
          <mxGeometry x="593" y="235.5" width="120" height="60" as="geometry" />
        </mxCell>
        <mxCell id="y2r9677_35H-fyOSKQa3-15" value="&lt;div style=&quot;&quot;&gt;&lt;b&gt;&lt;font style=&quot;font-size: 13px;&quot;&gt;Filtering COVID-19-Related Comments&lt;/font&gt;&lt;/b&gt;&lt;br&gt;&lt;/div&gt;" style="rounded=0;whiteSpace=wrap;html=1;fillColor=#60a917;strokeColor=#2D7600;strokeWidth=3;align=center;fontColor=#ffffff;" parent="1" vertex="1">
          <mxGeometry x="606" y="224.5" width="120" height="62" as="geometry" />
        </mxCell>
        <mxCell id="y2r9677_35H-fyOSKQa3-20" value="" style="endArrow=classic;html=1;rounded=0;entryX=0;entryY=0.406;entryDx=0;entryDy=0;entryPerimeter=0;fillColor=#dae8fc;strokeColor=#6c8ebf;strokeWidth=4;" parent="1" edge="1">
          <mxGeometry width="50" height="50" relative="1" as="geometry">
            <mxPoint x="350" y="164" as="sourcePoint" />
            <mxPoint x="412" y="164.1260000000001" as="targetPoint" />
          </mxGeometry>
        </mxCell>
        <mxCell id="y2r9677_35H-fyOSKQa3-25" style="edgeStyle=orthogonalEdgeStyle;rounded=0;orthogonalLoop=1;jettySize=auto;html=1;strokeWidth=4;fillColor=#dae8fc;strokeColor=#6c8ebf;endSize=6;" parent="1" edge="1">
          <mxGeometry relative="1" as="geometry">
            <mxPoint x="654" y="223" as="targetPoint" />
            <mxPoint x="657.04" y="185" as="sourcePoint" />
          </mxGeometry>
        </mxCell>
        <mxCell id="y2r9677_35H-fyOSKQa3-22" value="" style="rounded=0;whiteSpace=wrap;html=1;fillColor=#dae8fc;strokeColor=#6c8ebf;strokeWidth=3;gradientColor=#7ea6e0;" parent="1" vertex="1">
          <mxGeometry x="593" y="135" width="120" height="60" as="geometry" />
        </mxCell>
        <mxCell id="y2r9677_35H-fyOSKQa3-23" value="&lt;div style=&quot;&quot;&gt;&lt;font style=&quot;font-size: 15px;&quot;&gt;&lt;b style=&quot;&quot;&gt;Spark Stream&lt;/b&gt;&lt;/font&gt;&lt;/div&gt;" style="rounded=0;whiteSpace=wrap;html=1;fillColor=#60a917;strokeColor=#2D7600;strokeWidth=3;align=center;fontColor=#ffffff;" parent="1" vertex="1">
          <mxGeometry x="606" y="124" width="120" height="62" as="geometry" />
        </mxCell>
        <mxCell id="y2r9677_35H-fyOSKQa3-24" value="" style="endArrow=classic;html=1;rounded=0;entryX=0;entryY=0.406;entryDx=0;entryDy=0;entryPerimeter=0;fillColor=#dae8fc;strokeColor=#6c8ebf;strokeWidth=4;" parent="1" edge="1">
          <mxGeometry width="50" height="50" relative="1" as="geometry">
            <mxPoint x="529" y="167" as="sourcePoint" />
            <mxPoint x="589" y="167" as="targetPoint" />
          </mxGeometry>
        </mxCell>
        <mxCell id="y2r9677_35H-fyOSKQa3-71" style="edgeStyle=orthogonalEdgeStyle;rounded=0;orthogonalLoop=1;jettySize=auto;html=1;fillColor=#f8cecc;strokeColor=#b85450;strokeWidth=4;" parent="1" source="y2r9677_35H-fyOSKQa3-26" edge="1">
          <mxGeometry relative="1" as="geometry">
            <mxPoint x="100.5" y="363.9411764705883" as="targetPoint" />
          </mxGeometry>
        </mxCell>
        <mxCell id="y2r9677_35H-fyOSKQa3-26" value="" style="rounded=0;whiteSpace=wrap;html=1;fillColor=#dae8fc;strokeColor=#6c8ebf;strokeWidth=3;gradientColor=#7ea6e0;" parent="1" vertex="1">
          <mxGeometry x="40.5" y="271" width="120" height="60" as="geometry" />
        </mxCell>
        <mxCell id="y2r9677_35H-fyOSKQa3-27" value="&lt;div style=&quot;&quot;&gt;&lt;b style=&quot;&quot;&gt;&lt;font style=&quot;font-size: 15px;&quot;&gt;Time Series&lt;br&gt;(Prophet)&lt;/font&gt;&lt;/b&gt;&lt;/div&gt;" style="rounded=0;whiteSpace=wrap;html=1;fillColor=#60a917;strokeColor=#2D7600;strokeWidth=3;align=center;fontColor=#ffffff;" parent="1" vertex="1">
          <mxGeometry x="53.5" y="260" width="120" height="62" as="geometry" />
        </mxCell>
        <mxCell id="y2r9677_35H-fyOSKQa3-29" style="edgeStyle=orthogonalEdgeStyle;rounded=0;orthogonalLoop=1;jettySize=auto;html=1;exitX=0.5;exitY=1;exitDx=0;exitDy=0;entryX=0.438;entryY=-0.016;entryDx=0;entryDy=0;entryPerimeter=0;fillColor=#dae8fc;strokeColor=#6c8ebf;strokeWidth=4;" parent="1" source="y2r9677_35H-fyOSKQa3-5" target="y2r9677_35H-fyOSKQa3-27" edge="1">
          <mxGeometry relative="1" as="geometry" />
        </mxCell>
        <mxCell id="y2r9677_35H-fyOSKQa3-38" style="edgeStyle=orthogonalEdgeStyle;rounded=0;orthogonalLoop=1;jettySize=auto;html=1;fillColor=#dae8fc;strokeColor=#6c8ebf;strokeWidth=4;entryX=0.48;entryY=0.04;entryDx=0;entryDy=0;entryPerimeter=0;" parent="1" edge="1">
          <mxGeometry relative="1" as="geometry">
            <mxPoint x="369.9999999999998" y="478" as="targetPoint" />
            <mxPoint x="370" y="403" as="sourcePoint" />
          </mxGeometry>
        </mxCell>
        <mxCell id="y2r9677_35H-fyOSKQa3-31" value="" style="shape=image;imageAspect=0;aspect=fixed;verticalLabelPosition=bottom;verticalAlign=top;image=data:image/jpeg,/9j/4AAQSkZJRgABAQAAAQABAAD/2wCEAAkGBxMTEhAQExAWEhUSEhgWExcQERYXERAWHBUXGRYTGBUYHSggGBoxHhYYITEhJSktLi4uGB8zOjMsNygtMCsBCgoKDg0OGxAQGjUmHyE1NS0tNyszKzIvKystNy0xLTU1LzY1Ly8tLS8rLTU3LS03LS0tLS0vLS0tLS0tLS04Lf/AABEIAOEA4QMBIgACEQEDEQH/xAAbAAEAAQUBAAAAAAAAAAAAAAAABgECBAUHA//EAEAQAAEDAgMFBQUFBwIHAAAAAAEAAgMEEQUSIQYTMUFRImFxgZEUMkJSsQdyocHRFSNigpKi4TNDJCVUg5TS8f/EABkBAQADAQEAAAAAAAAAAAAAAAABAgQDBf/EACURAQEAAgEEAQMFAAAAAAAAAAABAhExAxIhUUEEE4EUMmHw8f/aAAwDAQACEQMRAD8A7WiIgIiICIiAiIgIiICIiAiIgIiICIiAiIgIiICIiAiIgIiICIiAiIgIiICIiAiIgIiICIiAiIgIiICIiAiIgIiICIiAiIgIiICIiAiIgIiICIiAiIgIiICIiAiIgIiICIiAiIgIiICIiAiIgIiICIiAiIgIiICIiAiIgoSrQSeA06u/RVjbmNzwB07z1UFr9rKmtlmgwwxwwQEtqMQqBmhY4cWwtOkjh1PZ8iCQne5PzegTcu+b1auRVTKS/wDxGO4lVP8AiNNIYob9WtAsB4EpTMowbw47idO7lv5DLHfvaWkfir/az9Kfdw9uuZH/AMPjc/RV3J+f0AXPqYYwY/3GMUVTAbh9TLAGz0wAvfIw7skDk7qLrRVTKG59pxXEa5/xGKUxwX55GDKAPAlRMMrxE3PGc117cH5z6BWTZG+/Jl+88N/Rcfp6PDHOAbimK0w4EGpdlcOhLQ6wW1xHY/C4Y/amYe7EWEdqY1b5CLc3DMfMgac7Kft5b1Yj7mOt7dJhfE/3JQ77sgcvUxOHA38dD6hcRLcEeRmwl0Oujqeofmb3jtNC3+FNqommXCcSdXMZq+hxI3my31Ecps4HkPh7zwTLpZ48wx6uGXFdOa/lwPQq5aPZTaiDEYnOYHRSxHLPDKMs9M/XRzTy0NjzseYIG6aTqDxH496ouuREQEREBERAREQEREBERAREQEREBWSGwKvXnLwH3m/UIIv9qOIyQUG5hdlmrJY6SE6gh0ps4gjUHKHa8jZQjbKRsAhwqn7MFIxocBpvZSMznutxOt/EuUv+0Q3rMAYeBry7zbGcv1XPNqnE1tYT/wBRIPRxA/ALT9NjLlv0zfU5WY69tWsjDqN00scLPekeGjuueJ7gNfJY6lX2bxgVUk7hpT08kngbBv0Lltzy7cbWPCbykV22xIMLcNg7MFNZr7f70vFznW42P437lFFuYNna2e8opZHZyXEuAZmJNyRnIvxWurqGSF5jljdG4cni2nUdR3hRh2yalTnu3djHWxwTGpqWQSQvt8zTqyQdHN5+PELXK+GJz3NY1pc5xs1rQS5x6ADirWSzyrLZfCUbSYbFNCMSpW5WF1qmIf7EnNw/huR6g8zaM01Q+N7ZI3Fj2m7XNNiCp/sVs5WwyOE1P/w9QwxzNdIzgQbOyh176keDioPjFCYJ5oCb7uQtB6i/ZPpYrn08pu4726dTG6mWtJNX4hlfheOxt3cslS2irwzRk8brtD3DmRYEc9Wj4QusT+809bj81xrEWf8AK8KgtrVYxGG9bB7gT6tHquy1HFnifof1Xn9SSZWRv6dtxlqqIiouIiICIiAiIgIiICIiAiIgIiIC85uBPTX01XoqOCCFfa0d3HhtYDYUmJQPeekbiWv+oUK2+pd3X1I5PcHjvzNBP43XSdvsM9qwqthtmcYHOaOZfH22/wBzAud7UVHtNNheIDUz0oZIRqN4z3h45i8fyrR9NdZ69s/1M3hv0jSmf2bVJj/aEjQC5lKXtDvdJbc2PdwUMUs2GNocVf8ALROHqH2+i2dX9lZOl++PGk2ulfOJKuSaSKxuynldEGnkQGObe3QnzWzxyrbWYc+cB16WqysMrs0oicGgBz+erh190aniYMpZgmmE4mTwMkIH3s7P1CrnhJqz+E4ZW7lRNS37POy6tmaAZYaR7ori9ndQPIDzUSW72MxQU9XE93uPvHJfhkdpc9wOU+Sv1JvGq9O6ym23wXGTVVWHx7rI9sodJJvXufPlBcb34DS9tVoNqJs9ZVuA4zvAtzs4tH0W7w/DzR4vDCR2RN+7PWN4IYf7reIKuwrCQ/Fpw/SOnnlmkJ90Na8ubfzLfIFc5ccbucadNZZTV52zzQ5sWwbDxq3DaR9TN0MjwGNHjms7+ZdLk1d4D6//ABQP7KWGodiGMvFjXz5Yb/DTxXYzz0sfuBTqPW7upv5cvwXn27u2+TU0vREUJEREBERAREQEREBERAREQEREBERBSD4m+fkVx+hw/LSYthXx4XVmeAc/ZpLvb49kvJ8QuvE2Id5HwP8AlQPbi1DiVFipH7iob7FXfK1rjeKV3IAHiTyaBzVscu2yq5Y90sczUq2Bla59VRvdl9sgMbSeAeAco/uPotTtLhBpaiSA+6DmjPzRn3Tfn0PeCsjZjBt8588sm4p6btzS3y5ba5Wu+bv5eNr+lnZcN78POwlmeteWpraV8T3xSNyvYbOB5d/eOYPMKU7Rj2WgpKHhJMfaJ+ov7jT9P+2vfBtrhi1YYv2MZqdrrR1UjnM3cYtdz3ZdSdSGh3MDqVn7RU9LiDqySB79/TR5rnWGZjRqGfjrpqb6grhj1u+zc4dsujcJdXlzpERa2V0rZkNr2Ucz3hs2HyASl3GSEAlhPmBqejuq1m2Afk/Z8GlXjlQ4v07UFHc3c4dMl7jvk6Lz2MdHSQvxOVzyN4YGRx2tISLnNfiNPLLzXnW09BV1j65mJYhDPM0MLKZv7xrLAbuMsYcrdAbAnW55rB1cct2Y8N3Syx1Lly6rh2GMgp4qWIZGRRtjZzIaBbXqep716NuOyfK3Ahck2rwtuHto5aSrrfbpqhjYoampMjqlpdZ4lj1GW3PkSOfDrtR8H3vyKzNKqIiAiIgIiICIiAiIgIiICIiAiIgIiIKOFxZYWLYXFV081JO3MyRuV3Xq146EEAg8iFnK1zeY0I4FByKqkfSxtoMXpKiojgNqStomZ3Pi5MkHwutYWN7252zG120UjXU0pwedmD07jcSRgzSSEXbVSRE3c1p1F7i5zXzBoHYBMebb/dP6pvz8ht4i/op7rrSO2b25liW1lDVNNtoGxQuGsXs5Y63yk6OPTortlMcoHsr6Sga+QMopJJKiVpaZjYta1oIByi7uQHjclTyTCaN7gXUkLnE8X07C48+JaozicAGK1LAA0PwJwaALDszvFh/WPVWmd4+FbhOflyoIqBVXqvLTqlxKpp8PwyGkjhkmraqVobVtcYi0CQknKQQey3VZ8eH7RSXZvMOomni6mie6QDua4Fp8ysOOE+37MU4/2aWed4+9CAD/AFX9SumyuOawNtL8B1PXwXlZ3eVephNYxF9l9hoKOR1XNNJWVbhZ1RUm7m6WLY2/APU62vbRSa9zc6dB+aCMceJ6lXqi4iIgIiICIiAiIgIiICIiAiIgIrS43sBf6BLP+Uf1f4QXIre18voUa66C5ERARWGQcPoLqrXA8EFH/Cejh+n5qNbTFsOIYbUv0jmZNRPceDXS5JIb+LonN8XBSdzbghYGOYRHW00tJNez22Jbo9jgbskaeTgQCPBBw7FMPfTyyQSCzo3W1+IcnDuI1XrgmESVUrYY2k3IzuA7MbebnHlp68FOH4bjEYbDNS0WLNj0jnmdu5y3lvA4EX8L95Ky49ncTqW7qeogw6mJ7UOFsO+kbbVhmdYM8Wjgtn6rxx5ZP0vnnwv2YibU4rWVzNYaSBlBA4HsvcDnmc3wJDb89VMwblx77Dy/zdeOHYZHTQR01NG2NkYysaODRzJPEm9zc8SV7NjcBazfU/osbWvRWZjwym/dw9eCrlf0Hmf8ILkVpzD4b/dP6p2vl/HVBcio119VVAREQEREBERAREQEREFjHWbIRxFz+CjOxtTWVlFTVb6sMdNHmLWU7MrTciwub8lJfgl/m+ig/wBmmGTuwuhc2vmiaYdGNipy1vaOgLoifUoNvi+JVVFJSvkmZUQT1DKd43O7midIcrJGua7K5uawLS29je639VNC0jPK1hPDNIG38idVoMZwB4jkqnTzVk1NHJLSsm3YiZOI3ZHiOJjQ51+Bde19LL32Owum9kglY1szp4mSSTPAfLUPc0Fz3vOpN+XLhpZBvWwg2IebHoQb+BWO6pgDshnbm+XfDN6XULxmnjiqK6kinFHTzYa587mENio5nS5I5Q0EBheHPuBa+7B46reQ4fNHE2D9nUckQZlLYpMjXC1rCF8JaB3Zig2OOYuykjje4Zs00UQAcAbySNjDzfkC65We5jXdrNoBqWkWPiVzvEmU0mHQiOFw3GJQQFtUGvlgLa+MSQZ7kFguQLEjLYLcY/SRGuw6kkY1tI+Od4iyhsE9S0xljHtGjuyZHBp0JBNjbQJPC+J5IZKHEccsgJHkrjE3Q7w6C98w4dfBa/HMNpRBI98bIhGxxbIxrWPhOU2cx4F2u8PBQDZHDo55MDZKwPYMFe4scLsfaWnsHtOjhc3sdLgHkg6nFUsc0ubI1zQbEtcCAeYJGgVIKyN9wyRj7ccjw63oVDMSpM2KMptxC6GOjE0MMj93DJNvS2SXI2Nwke1rYwLjs5789Mjaygc6nkkfDS0roml0VSKpzX0r/heHiAG17AtvZwuDxQbfEq+Q1UVJG5seeJ0rnubmcQHZcjGnS/O5vpyXu+gnAJZWvLuW9iiLPMMa0281hyvhmlipamMGYQNla8dlpJ0funAh4Nx3aWWT+xMv+nVVEfS8u8HpKHLr4knx+HLzbfn8vA45IyCN0kBFRJJumRA2D33PaDjwZYZr8gsmKiqXC8lXkJ+GniYGN7ryBxd46eAUbOISOdBVS2e2iq5oZXxt7LmFoaJ7a2APGym8cgcA5pBBFwQbgjqDzU5zt+EdO93y0ddU1FKN69wqIW/6nYDZ4m83jL2XgcxYFetJiTn1kkIcDEKaORlhxLnHW/MWAV21FY1lPK33nysdHEwauke4FoAHPjc9y1ez9MY6wxO1MeHwNPiC4H6JJLjbf7wi2zOScf6kTeL/AL35BXqhg1JzEXN+AVHNLdb3HPTULi7rkREBERAREQEREBERBY0gZmu4O9DcahY9FRwwQspoGhsbG5WNaSQwX6kk8yspEFsZyfdPTiD+i1jsApLuc3PDmcXOFPVTQMc4m7nFkT2tJJ1JtcrbKlu5Bg0+GUrGSQtiYWTX3wcM++uLEyudcvNtLuJ0XizAaYDK2SZrRoGsr6lrGjoGiWwHcFtLJlHRBgOwqkMJpd0wQ3zZQLNzZs+fMPjzdrNe99b3WNjGGO3UMUcDKqEPJmiqnukkkaQS10ckriM4dY2cbW4Fui3FlaAR7p06EXAQRuSiNv3OFvbKAd06rlhMMLrWD+zLI5tv4W+i2OBbPw0sdIDZ0lNSinbIbguZ2S4Bt7auYD5LaZn9W/0n9UDeZNz3/kgxq+kgnDRMwHI7Mwuu18ZsRnZICCw2J1BB1WLHgVKHNc7PKWuDmioqZp2scODmsle4Bw5EC4W0slkGPW00EwAlYDlN2l4Ic09Wu4tPgVjHBqfgXyEdHVk5ae6xksVsbJlHRTMrOKrccbzHnAImNEbGBrALAMb2AOlgsMYLTa5LxX1Ignkib/QxwH4LYqhaOiTKz5TcZfhq37O0ztW5hINWytme6dh7pHOJt3HTuXvVYVTufnkH7zKGl28c1zgOF8pCzCwHkEa0DgFPfl7R2Y+mv/ZFL3/+RL/7rNAaGNjZqAABqTYDq48V6WVVFtvKZjJxBERQkREQEREBERAREQEREBERAREQEREBERAREQEREBERAREQEREBERAREQEREBERAREQEREBERAREQEREBERAREQEREBERAREQEREBERAREQEREBERAREQEREBERAREQEREBERAREQEREBERAREQEREBERAREQEREBERAREQEREBERAREQEREBERAREQEREBERAREQEREBERAREQEREH/9k=;" parent="1" vertex="1">
          <mxGeometry x="310" y="280" width="120" height="120" as="geometry" />
        </mxCell>
        <mxCell id="y2r9677_35H-fyOSKQa3-41" style="edgeStyle=orthogonalEdgeStyle;rounded=0;orthogonalLoop=1;jettySize=auto;html=1;entryX=0;entryY=0.5;entryDx=0;entryDy=0;fillColor=#dae8fc;strokeColor=#6c8ebf;strokeWidth=4;" parent="1" source="y2r9677_35H-fyOSKQa3-36" target="y2r9677_35H-fyOSKQa3-39" edge="1">
          <mxGeometry relative="1" as="geometry" />
        </mxCell>
        <mxCell id="y2r9677_35H-fyOSKQa3-36" value="" style="shape=image;imageAspect=0;aspect=fixed;verticalLabelPosition=bottom;verticalAlign=top;image=data:image/jpeg,/9j/4AAQSkZJRgABAQAAAQABAAD/2wCEAAkGBxISEhUTExIWEhUWFxgVFRcWFxUVGRgVFxUXFhcWFhgYHSggGBolGxcVITEhJTUrLi4uFx8zODMtNygtLisBCgoKDg0OGxAQGi8mHyUtLS83Mi0vLS0uLS0tKy0tNysvLy0tLS0rLS0tLS0tKy8rLy0tLS8tLS0tLS0tLS0tLf/AABEIAOEA4QMBEQACEQEDEQH/xAAcAAEAAQUBAQAAAAAAAAAAAAAABgIDBAUHAQj/xABLEAABAwEEBgcFBAcFBgcAAAABAAIDEQQSITEFBhNBUWEHInGBkaGxFDJSwdEIQmJyI3OCkrLh8DQ1dKKzFRYkM1PCFzZVk9LT8f/EABoBAQADAQEBAAAAAAAAAAAAAAAEBQYDAQL/xAA0EQEAAgECBAMGBQQCAwAAAAAAAQIDBBEFEiExE0FRMmFxgbHRIkKRocEUI1LhFTMkYvD/2gAMAwEAAhEDEQA/AO1oCAgICAgICAgICAgICAgICAgICAgICAgICAgICAgICAgICAgICAgICAgICAgICAgICAgICAgICAgICAgICAgICAgICAgICDxBb243VPYCfRBUyUHDfwOB8CgrQEBAQEBAQEBAQEBAQEBAQEBAQEBAQEBAQEFpjL+J93+L+SDXac1mhspDCC9+FWtp1RxJyGGQ/wD1Rc+rpinaesp+k4fl1Ebx0j1lnWG2w2qO/G68PBzTwPArtjy1yRvWUbPgyYbct46rjCQbrs9x4j6ro4riAgICAgICAgICAgICAgICAgICAgICAgILL33jdBrXOm4b8d3BBr9atM+yw9Wm0f1Yxwpm6nAYd5Ci6rP4VOneU/h+k/qMnX2Y7/Zy97y4kuJJJqScSSd5VFMzM7y19axWNo7M3QmlX2aUSNxGT27nN4dvArrgzTitzQj6vS11GPlnv5T6S6qHiWNr2EGoDmHtx9FoK2i0RMMXek0tNbd4eGRwzYe7rei+ny9F85Np2n6VQe3ZODT3n6IDH15EZjggrQEBAQEBAQEBAQEBAQEBBQ99MKVJyAQBG87w3/MUHvsx+N3kPkgGzHc93fQ/JAFmr7zi4cMh30zQazSmstms/VLrzh9yOhI7dw71Gy6vHj6TPX3J2n4fnz9YjaPWXP8AWHTBtUu0u3AAGtbWtBUkntNVT6jP41+ZpdFpI02Pl33lrFwTBButF60WiBoY0tcxuTXNrSprmKHepWLV5MccsdlfqOG4M1pvO8TPokej9fGHCaMs/EzrDvGY81Mx8RrPtxsq83Bbx1x23+PRh6Q18eTSGMNHF+JPcDQeJXPJxGfyR+rvh4LXbfLb9FzVrWuaS0NjmLS19QKNAo7MelO9fWm1l75IrfzfOu4Zix4Zvj33j6JhKKPB4gjwxHqVaM+rQEBAQEBAQEBAQEBAQEBBRD77uTR5k19AghOs+tFoZNJFG4RtYaVABccAcSa0z3Kp1OryVvNK9Nmj0HDcN8Vcl+sz+iNTaSnd700h7Xu+qgzmyT3tP6raumw16RSP0IdJTsxbNIP23elUjLkjtaf1eW02G0bTSP0Ztp1ltT49m6U03kANcRwJG5dLavLavLMuFOG6el+eK/ZpwFHTnqDyqCtsZOQJ7ASvYrM9ofM3rHeXj2EZgjtBCTEx3gi1Z7SpXj6eoMvRFfaIaZ7WOn77V0w/9lfjH1cNVt4F9/Sfo63bMLp3A49lCK+i0jDvQg9QEBAQEBAQEBAQEBAQEFEPvu5tHkT9UHNNcortsl53XDvY35gqh1lds0tfwu0W0tfdv9WlUVYCAgrghc9wYxpc44ADEle1rNp2iOr5vetK81p2hM9E6i5OtD6fgZ83fTxVni4f55J+UKHUca8sMfOfsk9i0HZovchYDxIvO/edUqdTT46dqqnLq8+T2rS2AC7Iw5oOYqmz2JmOzWW7V2yy+9C0H4mi4fFufeuF9Niv3qlYtdnxezafn1RHTOpMjKugdtW/CaB47NzvJV2bQWr1p1XWm4xS/wCHLG0+vl/pFQXNdva5p5ghwPiCCoHWJ964/DevrEul6paf9pZcfTasHW/E3K8B6/zV5pNT4tdp7wynEdD/AE996+zP7e5tmi6bu7NvzHcpatXUBAQEBAQEBAQEBAQEBBbJo9p41b44jzCCH9I9hxjnAwI2bu3Fzf8Au8lVcRx9rx8Gg4Jn9rFPxQtVi/EN1UUZc4NaCXEgADeTgAvYiZnaHza8VibT2h1LVrQLLKzGjpXDru/7W8h5q+02mjFX3shrtbbU3/8AWO0fy3SkoIgICAgII/rPq0y0gvZRkwGB3O/C767lE1OljLG8d1joeIW088tutfp8HPbFaZLLOHULXxuo5pwqPvNPaPqqel7Ycm/nDTZcdNTh236T5/y6xtBLE2RmIID2nur6YLQ1tFoi0ebFXpNLTW3eFTHVAPFfT5VICAgICAgICAgICAgIKJm1HmO0ZILVvs7LRA5r8GubifhIxvDsIqueWkXpNbO2DLbFki9e8ORlqzO7bb9Hl1ebm6Y6gaKq51ocPd6sf5vvO7hh3lWnDsO8zkn5KPjGp2iMNfjKdK3Z8Qa7S+mYrM2shxPutGLj3bhzK4ZtRTDH4knTaTJqJ2pHz8kOt2us7j+ja2Idl93icPJVeTiOSfZjZeYuD4a+3Mz+0Nf/ALz2z/rn92P/AOK4/wBbm/y+iT/xul/w/eWbZNdLS09cMkG+ounuLcPJdacRyx32lwycIwW9mZj90q0NrPBaCG12bz912/8AK7I+vJWODWY8vTtKn1PDsuDr3j1hu1LQES160KHs9oYOswdf8TOPaPTsVdr8HNXxK94+i44Tq+S/hW7T2+P+1zo/thdA6MnGN2H5XYjzvL3h2TmxzX0fPGMXLmi8fmj94b6AUq3gT4Zj1VgqV1AQEBAQEBAQEBAQEBBatD6NPE4AcSgwtZZtlZJKZ3QwftUb6EqLrL8mG0pmgx8+orHz/RzK6s3u124WpuburaDsexgjZkQ0E/mPWd5krUafH4eKtWN1WXxc1r+9nrsjtfpzSYs8RecTkwcXHLu39y4anPGGnNKTpdPOfJFI+fwcvtdofK8veS5zsST6DgOSzd8lr25rT1a3FjrjrFaxtENro/Va0SgOuiNpyLzSvdSqlYtDmyRvttHvQ83E8GOdt959zMk1InAwfG48OsPku1uGZIjpMOFeM4pnrWWjt+jJYTSRhbwOYPYRgVBy4b4p2vGyxw6nHmjek7sW6ue7smuqWsZcRBManKN5zP4XHjwO9W+h1vN/bvPwn+Gf4joIr/dxx084/lL3NBBBFQcCOStZjfoponad4Q/Vezez22eHddq38ocC3ycqvR18LUXxrnX5PH0tMnnv/wDfRJ/vu7AfUfJWqlXEBAQEBAQEBAQEBAQUSPpgMScgg9DWxgve4YCrnHAAcuAXlrRWN57Pa1m07R3QrWjWBs7dlG03A4G8cC6lchuGO9UOt10ZY5Kx09Wh0GhnDbxLz19EcuquWm69Yob0kbfie1vi4BfeKN71j3x9XPNflx2n0ifo60taxoggevVpLpmx7mN/zOxPldVDxPJvkivpH1aHhOOK4pv6z9GRqXoVrv07xWhpGDlUZu8cB2FdOG6aLf3bfL7ufFNXMf2qfP7JorpRCC1abOyRpY9oc05gr5vSt45bRvD6pe1Lc1Z2lznWLQxs0lBUsdiw+rTzCzms004L9O09mo0Wr8enXvHf7tUB3KJumT16S6bq7pHbwNcfeHVf+Yb+8UPetNpM/jYot5+bJ6zB4OWax27wvHRzfaBPWh2ZjI3EVqCungx4vi+e2z48efB8Ly33V5vceQHfifmuzguICAgICAgICAgICDwoPLM2tXnflyb/ADzQQjWbTJnfcaf0TTh+Ij7x5cFm9drJy25a+zH7+9o9BpIw15re1P7NJdVfusdy6m7zdkaONJojwkYfBwXXDbbJWffH1cs/XFaPdP0dSWvZEQc61rZ/xUnO6f8AI1ZjiG8ai3y+jTcOn/x6/P6pvoKMNs8QHwNPeRU+ZV/pYiMNYj0hQaq0zmtM+ss5SHAQEGn1rsoksz+LKPHdn5VULiGPnwT7uqbw/JNM8e/o55dWY3afdKdRJqPkZxaHDuND/EFccJyfitT5qfi1N61v8kmcyr3VLtxpUgZfyV4o1xrQMAgqQEBAQEBAQEBAQEFq1HqHsQYes87mWd10HGjSR91pzPy71B4jktTBPL59EzQUrfNHMgN1Zbdpdy6m5uXU3Ny6vdx0vRlqEsTH/EBXtyI8arYafLGXFW8ebJ58c48k19GUuzkimumjybswG66/lj1T5keCpOLYJ6ZY+ErjheeI3xz8YZmqWkQ+MRE9dmAHFu4jsy8F34ZqYvj8Oe8fRw4jp5pk8SO0/Vv1aK4QEGDpx1LPL+Rw8RRRtZO2C8+6XfSxvmr8Yc3urI7tVu32pjf+IP6t38TFZ8J/7/lP8K3ik/2Y+P8AEpdLg+pycAB2gk081pFAuICAgICAgICAgICAgpe2oI4oEbw4FjwK0oQcnDjzXkxExtL2JmJ3hGNMatOaS6HrN3s3j8vEefas/rOF2r+LD1j0+y503EIn8OXv6o8WUwIod4VPO8TtKzid+sF1ebm5dTd7ukOqekbjtk49Vxq3k7h3+varjhWritvCt2nt8VXxHT80eJXy7/BL1olKpkYHAgioIoQciF5asWjaez2JmJ3hFbfq1Ix1+zuyxArRw7Dv/rNUOfhmSlufBP3hb4eIUvXlzR9lcOlrazB0BfzuOB/y4L2mt1tOlse/y+z5tptLbrW+3zZ1gktkj2ueGxRjNtMXcscR5KXgtrMl4teIrX085R8tdNSsxWea30btWaC0Gt9ruxCMZvOP5WmvrTzVTxfPFcUY47z9IWPDsXNk557R9UOurN7r3dds07o3B7DdI/qh4hdMWW2O0WrPVzyUrkry27J9YrQ20RBwwqMRwcPoVr9NnjNji8M1mxTivNZVwvqBxyPaMCu7kuICAgICAgICAgICAgokjB+R3jsQGyub7wvDiM+8fRBbnssE3vNa4+DvquGbS4s3t13dcebJj9mWg07oJsbb8daD3gTWg3Ef1vVHxDh1cVPExb7ea00mttktyX+TQXVS7rLcur3c3SrQmngQGSmhyDzkfzcDzWg0HFIttjzT19fX4qbVaKY/Fj7eiQq8VogICDGt9tZC2849g3k8Ao+o1NMFOa8/7dcWG2W3LVBbdaXSvL3ZnIcBuAWQz57ZrzezQ4cdcVYrVj3Vy3ddy6vNzdLdU4JGsdeaWtJBbXfhQmnDJaXg+PJTHbmjaJnopOI3pa8cs9YbOH735nequFeuoCAgICAgICAgICAgICC3JEHZhBVC+8Cx2JAoa7wcKryYiY2l7E7dYRDTOjxDJQGrSLw4gVyKx/ENLGny8sT0nrC+0uectN57wwKKBuk7l1Ddn2HSssWDXVb8LsR3bwpun4hnwdInePSUbLpceTrMdfc28GszfvxkflIPrRWuPjlZ9uk/Lqg24db8tmR/vHDwf4D6qR/zOn9/6Of9Bl9zDtWspyjZTm76D6qJm45PbFX5z9nfHw7/ADn9GitE75HXnuLjz+XBUuXPfLbmvO8rHHSuONqwt3Vy3fe7aaC0VtXXnDqDuvHgrThuh/qLc1/Zj90PV6rw45a90ijsFniNQ1oO6uJ7qrRY9FgxzvWkbqm+oy36TZedaCfcHecB3DepTi9jbQU/qqCpAQEBAQEBAQEBAQEBAQEFEQ/SH8vqf5II1rCazu5Bo8q/NY/i999VPuiF1oo2xQ1t1Vu6XuXU3Ny6m5uXU3Ny6m5uXU3Ny6m5u2OidEmY1JowGh4k50H1Vlw/h86meaZ2rH7+5F1OqjF0juk5LY2hrRya0f1lzWtx4646xWsbRCltabTvPdTHHTE4k5lfbxcQEBAQEBAQEBAQEBAQEBAQEFDP+Z2t9CPqgj+sMVJifiAPy+Sx/Gqcup39Yhb6K2+Pb0a2iqd0vdlWTR0knutoPiOA/n3KbptBn1E/hjp6z2ccmopj7z1Z8urrvuvB7RT0qrPJwK8R+C+/xRq6+PzQxH6FmH3K9hb8yoVuE6uv5d/hMO0azFPms2iwSMFXMIGVcD6FRs2jz4a82Su0OlM9LztWWPdUXd13Lqbm6VaFiuQiuFauPfl5ALa8KxTj01d+89f1U2qvzZJ2XbO3C8feOJ+nYrFGXkBAQEBAQEBAQEBAQEFJcBvQA8cQgqQEBBbkwIdwz7Dn/XJB5PDDLQuo6nOmajZ9HhzzE5K77OlMt6ezKhkFnZkGV7ifNfOPQabHO9aQ9tmyW7yvOtXwtJ5nqjzUtyWWzSHFvW/ZoO4kiqD32iUZxinb9KoLrHtkaWuGYxaccOI4jmvjJjrkrNbRvEva2ms7w09s0G4Yxm8OBwPjvWZ1fA71nmwTvHpPf/axxa2J6XWbDotzn0e0taMTUZ8go2i4XlyZtstZisd9/P3PvNqaxX8M9W+tRyYN+fJu/wCi2MRsqnq9HqAgICAgICAgICAg8caYlBQyMvxNWt3AZnt4INVprWTR1iNLRaIYnUrdcQ59ON0VdRBhaP180RaHBjLXASTQB9Yqk4UG0AqUEkdZ6YsNORxB+iCgT8nVGYoT6IG2Hwu/dd9EA2hozNORBB8CgpLmn7hP7J+aA14H3HD9k/RB6DfcBQgZmoIyyGKCHdJPSXDoosiERnne2+GXrjWMrQOe6hOJBoAPunLCobDo11mtGkLM+e0Wf2ciUtY0B4vR3GOD+vnUuIqMMEG7ic0ilHEgkAgGooSMwguC0Pb90uHMEHyFEHvtrv8ApuHM1p6IPI5BicSTnRp8OxBXtvwu/dKBthvDh2goLjXA4g1QW9uN1T2An0QNr+F37pQNuODv3XfRBWx4OSCpAQEBAQW3irg3d7x7t3jRBzrpq1/fo+NtmszrtomaXF++KKtLw/E4ggHddcc6II1qV0K7eMWnSMsofL+k2TCA/rdasz3AkuNakChG81wAbfWHoJsj43GySyQygdUSOD43Hg7C82vEE04FBgdDmktK2Sf2G2WW1ezmrWPfFIWwvbXASUpsjSmdASCMCUHQ9fdd4dFRxySxSSCRxaNndqCBXG8Qgjem+mmwwRxFrJJpJI2ymNpaNmHtDg2R9aB1CMBXnRB0O0W+OOEzyubHG1t9znGgaKVxKDl2lOnmxMeWw2eWdoNL5LYgebQamnaAg2ujemPR81nllAkZJCy+YHXQ97agExurddSuWBwOCDd6oa9Q6Qss1qjikY2Eua5r7tTdjEhpQkZFB8962a3w2zSzLds37Fr4CY3XS4siLb7c6Y0d4oPojUPXSLSsUksUb4xG+4RJdqTdDqi6Thig1eunSrYdHPMJvWiYe8yKlGHg95NAeQqeIQaPQnTrYZZAyeGWzAml8kSMHN12jgOwFBvLB0oWabSI0cyKQvL3MEoLDGbrC+8CHVIIGHag2mvmukWioo5ZY3yCR9wCO7UG6XVN4jDBBFtKdN9gijjcxkk0j2B5jbdGzrk2R9aXuQrTfRA1c6brBaJGxzMfZC40D3lro6nABzhi3tIpxIQdJfZWk1y4gYA9oQQ/XTpNsGjHbFxdNMKViiAJZUVF8kgNw3YnEGlCgjeiunmxPeGzWeWBpNL4IlA5uAo6nYCg3w6VLI7SDLAyN8he6NrJWFhjIkY14cDeqRRyCaTCj28wa91KepQVoCAgICCiL/mH8o9UHz1r4NtrSyOQ1YJ7HHQ5XC2Fxb3lzvFB9C6StJihkkDbxYx7w3Kt1pdSu6tEHHP/ABztH/pLv/df/wDSgQdO8hlZG7Rtwuc1uM5BF4gVoYkGT9pT+zWT9a/+BBndFfRxYPYIbRaIGWiWdgkJkF5rWuxa1rTgOrSpzrXkEGj+0dptzfZrCw3WFpmkAwqAbkYPIEPNONOCCddH3R9ZLDZo70MclocwOlke0PN5wBLWFw6rBlhStKnFBFem/UKzeyPt1nibDLEWmQRtDWyMc4NJLRQXgXA3t4rWuFAvfZxaDo+0AioNpIIO8bGNBC9e7LG3WeGNrGtZt7GLgaA2hMVRdpTFB2vXC2M0do+1TwxsjcyMlt1rWjaOoxhIAxo5wQcf6DNS4bc6a22tu3ax9xjH9ZrpSL73yA+/QObgag3jXIIOyae1LsFrhMUtmjAoQ1zGNY+PgWOAqKYYZGmIKD5+6ONGOsusMNneauhmmjJyrdilF4Dgc+9B0P7SX9js368/6bkGz6G9TbLFo+G0OhZJPO3aOe9ocQ0k3WMr7ou0rTM15UCN/aB1Rs0UEdthibFJtRFIGANa9r2ucHOAwvAtpXfexrQUCXamayPbq6y2P6z4bPLSuN4wF7GVPO41BzPoW1Tj0nabRa7YNs2NwcWuxEs0pc4ufxAoSRvLhzCDuOldULBaIjDJZYSylBdY1hZhSrHNFWHsQfO2ruhTYtYYbKTe2Vqa0Hiw9ZhPMtLSg+nLR77Ox3yQVoCAgICC2DR45gjvzHzQcS6ftXpYbRFpSGoHUbI5oqY5YzWOQ8iKDtaOIQdH1E6QbJpKFpEjI7RT9JC5wDg4ZlgPvsrkRxFaHBBu9PaxWWxRmS0TsiaBgCRecaVoxubjyCDgurEEmntOm1lhbBHIyV9fuxx0EMZ3XnFgqPzncglf2lP7NZP1r/4EHQejn+67D/hov4Ag5Z9pLQ7r9mtYFW3TA88CCZGA9t6T91B1DUDWyHSNkjkY9u0DGiaOovMeBR1RndJqQd470ET6dtbIYbE+xteHTz3QWA1LIw4Oc5/w1pQA515FBj/Zv/sFo/xJ/wBKJBENf/8AzTD+vsXrEg7R0g6Jda9HWqBgq98ZLBxewh7W95aB3oOTfZ81rhg21hmeIjI8SxFxoHPuhjmVOTqNbTjjyqHa9N6YgskLp7RI2ONoqSTnyaM3OO4DEoPnHo/0obXrHHaKU2s88gHAOilLR3CgQT/7SX9js368/wCm5BN+jH+6rF+oZ6IIx9ob+62/4iP+GRBT0d6NNq1ZFnb70sVqY2uV4zTBte+iCE9AutEVjnnsdpdsdsW3C/qhszLzXRuJ90mopXe2mZCDvmktIw2eN000jYo2ipc4gD+Z5DNB806G02LbrJFaQC1slqaWg53GgMZXndaKoPpe0e+zsd8kFaAgICAgokZUcOB4FBTI1krHRSsa4OBa9jgC1zTgcDmDwQcs1h6B7LK8vstofZqmuzc3asHJpqHAdpcgwNGfZ/YHVtFuc5vwxRhjj+05zgPAoOr6F0RZbBC2GCNsLK5CpLnGgLnHNxwGJ4ckGi6TNRjpaKGMT7DZPL67PaVq2lKXm0QbzQujjY7FDZw8PdDE2IOu0Di0BoN2ppU7qoL2kbBDbIHwTxh7Hij2HxBBzBBAIIyICDkWkOgOkl6zW4sZuEjKub+2xwr4BBtNG9B1njs8zHTmW0SMuNldGLkVXAlzI71S6mFSeyiCWdGupZ0TZ5ITPt78pkvXNnSrGtpS86vu580Gn1g6MDadKs0l7UGXJIJNlsr1djcwv3xnd4YV3oOhPmaCATQnJBzXXjobs1tldPBIbLK83ngND43uObrtQWuO8g0OdKkkhpND9ArRI11rtjpo20/RxtLKgbi9zjRvICuOYQb7Q/RM2zaUbb47Q1sbXucyzthuhrXRuYGh9/dXOm5Bu+kvUg6WhiiE+w2cm0rc2leqW0pebTNBt9AaO9hsUUBdtdhGGXqXbxHKppXvQYHSHqn/ALVsgs4m2P6Rsl+5tPdDhSl5vxZ8kGVqPq9/s6xRWQy7XZ3+vduVvyOf7tTSl6me5BF9fuiSzaRkM8bzZZ3e+4NDmPPF7Kjrcwe0FBGdF9AnXb7Tbi+Nv3I2XSeQc5xDR3IN7Z+iCOLSUdthnbFFG+NzLOIiaBjGtptL+JJBNSMzvQdGn99vIO86IK0BAQEBAQUvYDmKoKBGRk5w76+qD0sO97vIegQGwtG7POuJPegCKmTnDvqPAoAi3kl3afkg9fGD28RgfFB5cdue7yPqEHmzd8bvL6IBiJze7xp6IPdmcr7qf1vzQBEMd9c64+qDwRUyc4d9fVB7cd8bvIfJA2Z+N1O4eYFUHgjIye7xr6oPRFxJd2n5IPBFTJxb2HDwKAYa+8S7ty8MkARU91xbyrh4FB7cd8bvIfJA2bvjd5etEHrGAfMnEoK0BAQEBAQEBAQEBAQEBAQEBAQEBAQEBAQEBAQEBAQEBAQEBAQEBAQEBAQEBAQEBAQEBAQEBAQEBAQEBAQEBAQEBAQEBAQEBAQEBAQEBAQEBAQEBAQEBAQEBAQf/9k=;" parent="1" vertex="1">
          <mxGeometry x="310" y="501" width="125" height="125" as="geometry" />
        </mxCell>
        <mxCell id="y2r9677_35H-fyOSKQa3-39" value="" style="rounded=0;whiteSpace=wrap;html=1;fillColor=#dae8fc;strokeColor=#6c8ebf;strokeWidth=3;gradientColor=#7ea6e0;" parent="1" vertex="1">
          <mxGeometry x="497" y="533" width="120" height="60" as="geometry" />
        </mxCell>
        <mxCell id="y2r9677_35H-fyOSKQa3-40" value="&lt;div style=&quot;&quot;&gt;&lt;span style=&quot;font-size: 15px;&quot;&gt;&lt;b&gt;Near_real time&amp;nbsp;&lt;br&gt;Event Detection&lt;/b&gt;&lt;/span&gt;&lt;/div&gt;" style="rounded=0;whiteSpace=wrap;html=1;fillColor=#60a917;strokeColor=#2D7600;strokeWidth=3;align=center;fontColor=#ffffff;" parent="1" vertex="1">
          <mxGeometry x="510" y="522" width="120" height="62" as="geometry" />
        </mxCell>
        <mxCell id="y2r9677_35H-fyOSKQa3-51" style="edgeStyle=orthogonalEdgeStyle;rounded=0;orthogonalLoop=1;jettySize=auto;html=1;strokeWidth=4;fillColor=#f8cecc;strokeColor=#b85450;" parent="1" source="y2r9677_35H-fyOSKQa3-42" edge="1">
          <mxGeometry relative="1" as="geometry">
            <mxPoint x="895" y="227.58823529411768" as="targetPoint" />
          </mxGeometry>
        </mxCell>
        <mxCell id="y2r9677_35H-fyOSKQa3-42" value="" style="rounded=0;whiteSpace=wrap;html=1;fillColor=#dae8fc;strokeColor=#6c8ebf;strokeWidth=3;gradientColor=#7ea6e0;" parent="1" vertex="1">
          <mxGeometry x="835" y="132" width="120" height="60" as="geometry" />
        </mxCell>
        <mxCell id="y2r9677_35H-fyOSKQa3-43" value="&lt;div style=&quot;&quot;&gt;&lt;font&gt;&lt;b style=&quot;&quot;&gt;Only 35000 historical Data Clean text&lt;/b&gt;&lt;font&gt;&lt;b style=&quot;&quot;&gt;&lt;br&gt;&lt;/b&gt;&lt;/font&gt;&lt;font&gt;&lt;b style=&quot;&quot;&gt;(Lowercase,..)&lt;/b&gt;&lt;/font&gt;&lt;/font&gt;&lt;/div&gt;" style="rounded=0;whiteSpace=wrap;html=1;fillColor=#60a917;strokeColor=#2D7600;strokeWidth=3;align=center;fontColor=#ffffff;" parent="1" vertex="1">
          <mxGeometry x="848" y="121" width="120" height="62" as="geometry" />
        </mxCell>
        <mxCell id="y2r9677_35H-fyOSKQa3-48" value="" style="rounded=0;whiteSpace=wrap;html=1;fillColor=#dae8fc;strokeColor=#6c8ebf;strokeWidth=3;gradientColor=#7ea6e0;" parent="1" vertex="1">
          <mxGeometry x="835" y="240" width="120" height="60" as="geometry" />
        </mxCell>
        <mxCell id="y2r9677_35H-fyOSKQa3-49" value="&lt;div style=&quot;&quot;&gt;&lt;span style=&quot;font-size: 15px;&quot;&gt;&lt;b&gt;Train Test Split&lt;br&gt;(85%,15%)&lt;/b&gt;&lt;/span&gt;&lt;/div&gt;" style="rounded=0;whiteSpace=wrap;html=1;fillColor=#60a917;strokeColor=#2D7600;strokeWidth=3;align=center;fontColor=#ffffff;" parent="1" vertex="1">
          <mxGeometry x="848" y="229" width="120" height="62" as="geometry" />
        </mxCell>
        <mxCell id="y2r9677_35H-fyOSKQa3-58" value="" style="rounded=0;whiteSpace=wrap;html=1;fillColor=#dae8fc;strokeColor=#6c8ebf;strokeWidth=3;gradientColor=#7ea6e0;" parent="1" vertex="1">
          <mxGeometry x="835" y="348" width="120" height="60" as="geometry" />
        </mxCell>
        <mxCell id="y2r9677_35H-fyOSKQa3-59" value="&lt;div style=&quot;&quot;&gt;&lt;font style=&quot;font-size: 14px;&quot;&gt;&lt;b&gt;StringIndexer,&lt;/b&gt;&lt;/font&gt;&lt;/div&gt;&lt;div style=&quot;&quot;&gt;&lt;font style=&quot;font-size: 14px;&quot;&gt;&lt;b&gt;Tokenizer,&lt;br&gt;CountVectorizer&lt;/b&gt;&lt;/font&gt;&lt;/div&gt;" style="rounded=0;whiteSpace=wrap;html=1;fillColor=#60a917;strokeColor=#2D7600;strokeWidth=3;align=center;fontColor=#ffffff;" parent="1" vertex="1">
          <mxGeometry x="848" y="337" width="120" height="62" as="geometry" />
        </mxCell>
        <mxCell id="y2r9677_35H-fyOSKQa3-61" style="edgeStyle=orthogonalEdgeStyle;rounded=0;orthogonalLoop=1;jettySize=auto;html=1;entryX=0.392;entryY=0;entryDx=0;entryDy=0;entryPerimeter=0;fillColor=#f8cecc;strokeColor=#b85450;strokeWidth=4;" parent="1" source="y2r9677_35H-fyOSKQa3-48" target="y2r9677_35H-fyOSKQa3-59" edge="1">
          <mxGeometry relative="1" as="geometry" />
        </mxCell>
        <mxCell id="y2r9677_35H-fyOSKQa3-67" style="edgeStyle=orthogonalEdgeStyle;rounded=0;orthogonalLoop=1;jettySize=auto;html=1;fillColor=#f8cecc;strokeColor=#b85450;strokeWidth=4;" parent="1" edge="1">
          <mxGeometry relative="1" as="geometry">
            <mxPoint x="895" y="546.2352941176471" as="targetPoint" />
            <mxPoint x="895" y="514" as="sourcePoint" />
          </mxGeometry>
        </mxCell>
        <mxCell id="y2r9677_35H-fyOSKQa3-62" value="" style="rounded=0;whiteSpace=wrap;html=1;fillColor=#dae8fc;strokeColor=#6c8ebf;strokeWidth=3;gradientColor=#7ea6e0;" parent="1" vertex="1">
          <mxGeometry x="835" y="453" width="120" height="60" as="geometry" />
        </mxCell>
        <mxCell id="y2r9677_35H-fyOSKQa3-63" value="&lt;div style=&quot;&quot;&gt;&lt;span style=&quot;font-size: 15px;&quot;&gt;&lt;b&gt;Logistic Regression&lt;/b&gt;&lt;/span&gt;&lt;/div&gt;" style="rounded=0;whiteSpace=wrap;html=1;fillColor=#60a917;strokeColor=#2D7600;strokeWidth=3;align=center;fontColor=#ffffff;" parent="1" vertex="1">
          <mxGeometry x="848" y="442" width="120" height="62" as="geometry" />
        </mxCell>
        <mxCell id="y2r9677_35H-fyOSKQa3-64" style="edgeStyle=orthogonalEdgeStyle;rounded=0;orthogonalLoop=1;jettySize=auto;html=1;entryX=0.392;entryY=-0.005;entryDx=0;entryDy=0;entryPerimeter=0;fillColor=#f8cecc;strokeColor=#B85450;strokeWidth=4;" parent="1" source="y2r9677_35H-fyOSKQa3-58" target="y2r9677_35H-fyOSKQa3-63" edge="1">
          <mxGeometry relative="1" as="geometry" />
        </mxCell>
        <mxCell id="y2r9677_35H-fyOSKQa3-65" value="" style="rounded=0;whiteSpace=wrap;html=1;fillColor=#dae8fc;strokeColor=#6c8ebf;strokeWidth=3;gradientColor=#7ea6e0;" parent="1" vertex="1">
          <mxGeometry x="835" y="559" width="120" height="60" as="geometry" />
        </mxCell>
        <mxCell id="y2r9677_35H-fyOSKQa3-66" value="&lt;div style=&quot;&quot;&gt;&lt;b style=&quot;&quot;&gt;&lt;font style=&quot;font-size: 13px;&quot;&gt;Accuracy&lt;br&gt;F1 Score&lt;br&gt;Recall&lt;br&gt;Percision&lt;/font&gt;&lt;/b&gt;&lt;/div&gt;" style="rounded=0;whiteSpace=wrap;html=1;fillColor=#60a917;strokeColor=#2D7600;strokeWidth=3;align=center;fontColor=#ffffff;" parent="1" vertex="1">
          <mxGeometry x="848" y="548" width="120" height="62" as="geometry" />
        </mxCell>
        <mxCell id="y2r9677_35H-fyOSKQa3-69" value="" style="rounded=0;whiteSpace=wrap;html=1;fillColor=#dae8fc;strokeColor=#6c8ebf;strokeWidth=3;gradientColor=#7ea6e0;" parent="1" vertex="1">
          <mxGeometry x="40.5" y="376" width="120" height="60" as="geometry" />
        </mxCell>
        <mxCell id="y2r9677_35H-fyOSKQa3-70" value="&lt;div style=&quot;&quot;&gt;&lt;font style=&quot;font-size: 13px;&quot;&gt;&lt;b&gt;Filtering COVID-19-Related Comments&lt;/b&gt;&lt;/font&gt;&lt;br&gt;&lt;/div&gt;" style="rounded=0;whiteSpace=wrap;html=1;fillColor=#60a917;strokeColor=#2D7600;strokeWidth=3;align=center;fontColor=#ffffff;" parent="1" vertex="1">
          <mxGeometry x="53.5" y="365" width="120" height="62" as="geometry" />
        </mxCell>
        <mxCell id="y2r9677_35H-fyOSKQa3-72" value="" style="rounded=0;whiteSpace=wrap;html=1;fillColor=#dae8fc;strokeColor=#6c8ebf;strokeWidth=3;gradientColor=#7ea6e0;" parent="1" vertex="1">
          <mxGeometry x="40.5" y="478" width="120" height="60" as="geometry" />
        </mxCell>
        <mxCell id="FyudGfPwEl1yIEfvJPFi-7" style="edgeStyle=orthogonalEdgeStyle;rounded=0;orthogonalLoop=1;jettySize=auto;html=1;exitX=1;exitY=0.5;exitDx=0;exitDy=0;strokeColor=#6C8EBF;entryX=0;entryY=0.5;entryDx=0;entryDy=0;strokeWidth=4;" parent="1" source="y2r9677_35H-fyOSKQa3-73" target="y2r9677_35H-fyOSKQa3-31" edge="1">
          <mxGeometry relative="1" as="geometry">
            <mxPoint x="228" y="355" as="targetPoint" />
            <Array as="points">
              <mxPoint x="229" y="498" />
              <mxPoint x="229" y="340" />
            </Array>
          </mxGeometry>
        </mxCell>
        <mxCell id="y2r9677_35H-fyOSKQa3-73" value="&lt;div style=&quot;&quot;&gt;&lt;span style=&quot;font-size: 15px;&quot;&gt;&lt;b&gt;Time Series prediction&lt;/b&gt;&lt;/span&gt;&lt;/div&gt;" style="rounded=0;whiteSpace=wrap;html=1;fillColor=#60a917;strokeColor=#2D7600;strokeWidth=3;align=center;fontColor=#ffffff;" parent="1" vertex="1">
          <mxGeometry x="53.5" y="467" width="120" height="62" as="geometry" />
        </mxCell>
        <mxCell id="y2r9677_35H-fyOSKQa3-74" style="edgeStyle=orthogonalEdgeStyle;rounded=0;orthogonalLoop=1;jettySize=auto;html=1;entryX=0.389;entryY=0.008;entryDx=0;entryDy=0;entryPerimeter=0;fillColor=#f8cecc;strokeColor=#b85450;strokeWidth=4;" parent="1" source="y2r9677_35H-fyOSKQa3-69" target="y2r9677_35H-fyOSKQa3-73" edge="1">
          <mxGeometry relative="1" as="geometry" />
        </mxCell>
        <mxCell id="y2r9677_35H-fyOSKQa3-82" style="edgeStyle=orthogonalEdgeStyle;rounded=0;orthogonalLoop=1;jettySize=auto;html=1;fillColor=#dae8fc;strokeColor=#6C8EBF;strokeWidth=4;" parent="1" edge="1">
          <mxGeometry relative="1" as="geometry">
            <mxPoint x="593" y="437" as="sourcePoint" />
            <mxPoint x="434" y="338" as="targetPoint" />
            <Array as="points">
              <mxPoint x="593" y="445" />
              <mxPoint x="488" y="445" />
              <mxPoint x="488" y="338" />
            </Array>
          </mxGeometry>
        </mxCell>
        <mxCell id="y2r9677_35H-fyOSKQa3-78" value="" style="rounded=0;whiteSpace=wrap;html=1;fillColor=#dae8fc;strokeColor=#6c8ebf;strokeWidth=3;gradientColor=#7ea6e0;" parent="1" vertex="1">
          <mxGeometry x="592" y="430" width="120" height="60" as="geometry" />
        </mxCell>
        <mxCell id="FyudGfPwEl1yIEfvJPFi-15" style="edgeStyle=orthogonalEdgeStyle;rounded=0;orthogonalLoop=1;jettySize=auto;html=1;exitX=1;exitY=0.5;exitDx=0;exitDy=0;fillColor=#f8cecc;gradientColor=#ea6b66;strokeColor=#b85450;strokeWidth=4;entryX=0;entryY=0.25;entryDx=0;entryDy=0;" parent="1" edge="1">
          <mxGeometry relative="1" as="geometry">
            <mxPoint x="833" y="162" as="targetPoint" />
            <mxPoint x="723" y="465" as="sourcePoint" />
            <Array as="points">
              <mxPoint x="723" y="445" />
              <mxPoint x="777" y="445" />
              <mxPoint x="777" y="162" />
            </Array>
          </mxGeometry>
        </mxCell>
        <mxCell id="y2r9677_35H-fyOSKQa3-79" value="&lt;div style=&quot;&quot;&gt;&lt;font style=&quot;font-size: 15px;&quot;&gt;&lt;b style=&quot;&quot;&gt;Sentiment Analysis(spark ML)&lt;/b&gt;&lt;/font&gt;&lt;/div&gt;" style="rounded=0;whiteSpace=wrap;html=1;fillColor=#60a917;strokeColor=#2D7600;strokeWidth=3;align=center;fontColor=#ffffff;" parent="1" vertex="1">
          <mxGeometry x="605" y="419" width="120" height="62" as="geometry" />
        </mxCell>
        <mxCell id="FyudGfPwEl1yIEfvJPFi-1" value="" style="rounded=0;whiteSpace=wrap;html=1;fillColor=#dae8fc;strokeColor=#6c8ebf;strokeWidth=3;gradientColor=#7ea6e0;" parent="1" vertex="1">
          <mxGeometry x="593" y="336" width="120" height="60" as="geometry" />
        </mxCell>
        <mxCell id="FyudGfPwEl1yIEfvJPFi-2" value="&lt;b&gt;&lt;font style=&quot;font-size: 13px;&quot;&gt;Fuzzy Named Entity Recognition (NER)&lt;/font&gt;&lt;/b&gt;" style="rounded=0;whiteSpace=wrap;html=1;fillColor=#60a917;strokeColor=#2D7600;strokeWidth=3;align=center;fontColor=#ffffff;" parent="1" vertex="1">
          <mxGeometry x="606" y="325" width="120" height="62" as="geometry" />
        </mxCell>
        <mxCell id="FyudGfPwEl1yIEfvJPFi-13" style="edgeStyle=orthogonalEdgeStyle;rounded=0;orthogonalLoop=1;jettySize=auto;html=1;fillColor=#dae8fc;strokeColor=#6c8ebf;strokeWidth=4;" parent="1" edge="1">
          <mxGeometry relative="1" as="geometry">
            <mxPoint x="654" y="420" as="targetPoint" />
            <mxPoint x="657" y="399" as="sourcePoint" />
          </mxGeometry>
        </mxCell>
      </root>
    </mxGraphModel>
  </diagram>
</mxfile>
